<?xml version="1.0" encoding="utf-8"?>
<!-- Generator: Adobe Illustrator 16.0.4, SVG Export Plug-In . SVG Version: 6.00 Build 0)  -->
<!DOCTYPE svg PUBLIC "-//W3C//DTD SVG 1.1//EN" "http://www.w3.org/Graphics/SVG/1.1/DTD/svg11.dtd">
<svg version="1.1" id="Layer_1" xmlns="http://www.w3.org/2000/svg" xmlns:xlink="http://www.w3.org/1999/xlink" x="0px" y="0px"
	 width="888.089px" height="978.229px" viewBox="0 0 888.089 978.229" enable-background="new 0 0 888.089 978.229"
	 xml:space="preserve">
<g>
	<path fill="none" d="M81.604,865.844h-11.02v39.061h11.02c11.643,0,19.517-7.864,19.517-19.345v-0.181
		C101.121,873.91,93.247,865.844,81.604,865.844z"/>
	<polygon fill="none" points="597.548,890.648 614.761,890.648 606.146,869.64 	"/>
	<path fill="#FF4209" d="M428.206,29.577h-61.028c-5.771,0-10.46,4.678-10.46,10.468v61.02c0,5.78,4.689,10.458,10.46,10.458h61.028
		c5.781,0,10.46-4.679,10.46-10.458v-61.02C438.666,34.255,433.987,29.577,428.206,29.577z"/>
	<path fill="#FF4209" d="M325.241,29.577h-61.029c-5.77,0-10.459,4.678-10.459,10.468v61.02c0,5.78,4.689,10.458,10.459,10.458
		h61.029c5.781,0,10.459-4.679,10.459-10.458v-61.02C335.7,34.255,331.022,29.577,325.241,29.577z"/>
	<path fill="#FF4209" d="M220.174,29.577h-61.021c-5.778,0-10.467,4.678-10.467,10.468v61.02c0,5.78,4.688,10.458,10.467,10.458
		h61.021c5.78,0,10.468-4.679,10.468-10.458v-61.02C230.642,34.255,225.954,29.577,220.174,29.577z"/>
	<path fill="#FF4209" d="M117.209,29.577H56.19c-5.781,0-10.47,4.678-10.47,10.468v61.02c0,5.78,4.688,10.458,10.47,10.458h61.019
		c5.79,0,10.47-4.679,10.47-10.458v-61.02C127.679,34.255,122.999,29.577,117.209,29.577z"/>
	<path fill="#FF4209" d="M533.275,29.577h-61.029c-5.771,0-10.459,4.678-10.459,10.468v61.02c0,5.78,4.688,10.458,10.459,10.458
		h61.029c5.77,0,10.459-4.679,10.459-10.458v-61.02C543.734,34.255,539.044,29.577,533.275,29.577z"/>
	<path fill="#19212E" d="M741.308,29.577h-61.029c-5.781,0-10.457,4.678-10.457,10.468v61.02c0,5.78,4.676,10.458,10.457,10.458
		h61.029c5.771,0,10.457-4.679,10.457-10.458v-61.02C751.765,34.255,747.078,29.577,741.308,29.577z"/>
	<path fill="#19212E" d="M844.271,29.577h-61.029c-5.779,0-10.459,4.678-10.459,10.468v61.02c0,5.78,4.68,10.458,10.459,10.458
		h61.029c5.771,0,10.459-4.679,10.459-10.458v-61.02C854.73,34.255,850.042,29.577,844.271,29.577z"/>
	<path fill="#FF4209" d="M428.206,145.153h-61.028c-5.771,0-10.46,4.679-10.46,10.458v61.02c0,5.78,4.689,10.468,10.46,10.468
		h61.028c5.781,0,10.46-4.688,10.46-10.468v-61.02C438.666,149.832,433.987,145.153,428.206,145.153z"/>
	<path fill="#FF4209" d="M325.241,145.153h-61.029c-5.77,0-10.459,4.679-10.459,10.458v61.02c0,5.78,4.689,10.468,10.459,10.468
		h61.029c5.781,0,10.459-4.688,10.459-10.468v-61.02C335.7,149.832,331.022,145.153,325.241,145.153z"/>
	<path fill="#FF4209" d="M220.174,145.153h-61.021c-5.778,0-10.467,4.679-10.467,10.458v61.02c0,5.78,4.688,10.468,10.467,10.468
		h61.021c5.78,0,10.468-4.688,10.468-10.468v-61.02C230.642,149.832,225.954,145.153,220.174,145.153z"/>
	<path fill="#FF4209" d="M117.209,145.153H56.19c-5.781,0-10.47,4.679-10.47,10.458v61.02c0,5.78,4.688,10.468,10.47,10.468h61.019
		c5.79,0,10.47-4.688,10.47-10.468v-61.02C127.679,149.832,122.999,145.153,117.209,145.153z"/>
	<path fill="#FF4209" d="M533.275,145.153h-61.029c-5.771,0-10.459,4.679-10.459,10.458v61.02c0,5.78,4.688,10.468,10.459,10.468
		h61.029c5.77,0,10.459-4.688,10.459-10.468v-61.02C543.734,149.832,539.044,145.153,533.275,145.153z"/>
	<path fill="#FF4209" d="M638.343,145.153h-61.027c-5.781,0-10.459,4.679-10.459,10.458v61.02c0,5.78,4.678,10.468,10.459,10.468
		h61.027c5.771,0,10.459-4.688,10.459-10.468v-61.02C648.802,149.832,644.113,145.153,638.343,145.153z"/>
	<path fill="#19212E" d="M741.308,145.153h-61.029c-5.781,0-10.457,4.679-10.457,10.458v61.02c0,5.78,4.676,10.468,10.457,10.468
		h61.029c5.771,0,10.457-4.688,10.457-10.468v-61.02C751.765,149.832,747.078,145.153,741.308,145.153z"/>
	<path fill="#19212E" d="M844.271,145.153h-61.029c-5.779,0-10.459,4.679-10.459,10.458v61.02c0,5.78,4.68,10.468,10.459,10.468
		h61.029c5.771,0,10.459-4.688,10.459-10.468v-61.02C854.73,149.832,850.042,145.153,844.271,145.153z"/>
	<path fill="#FF4209" d="M220.174,260.72h-61.021c-5.778,0-10.467,4.688-10.467,10.459v61.029c0,5.78,4.688,10.459,10.467,10.459
		h61.021c5.78,0,10.468-4.679,10.468-10.459v-61.029C230.642,265.409,225.954,260.72,220.174,260.72z"/>
	<path fill="#FF4209" d="M117.209,260.72H56.19c-5.781,0-10.47,4.688-10.47,10.459v61.029c0,5.78,4.688,10.459,10.47,10.459h61.019
		c5.79,0,10.47-4.679,10.47-10.459v-61.029C127.679,265.409,122.999,260.72,117.209,260.72z"/>
	<path fill="#FF4209" d="M533.275,260.72h-61.029c-5.771,0-10.459,4.688-10.459,10.459v61.029c0,5.78,4.688,10.459,10.459,10.459
		h61.029c5.77,0,10.459-4.679,10.459-10.459v-61.029C543.734,265.409,539.044,260.72,533.275,260.72z"/>
	<path fill="#FF4209" d="M638.343,260.72h-61.027c-5.781,0-10.459,4.688-10.459,10.459v61.029c0,5.78,4.678,10.459,10.459,10.459
		h61.027c5.771,0,10.459-4.679,10.459-10.459v-61.029C648.802,265.409,644.113,260.72,638.343,260.72z"/>
	<path fill="#19212E" d="M741.308,260.72h-61.029c-5.781,0-10.457,4.688-10.457,10.459v61.029c0,5.78,4.676,10.459,10.457,10.459
		h61.029c5.771,0,10.457-4.679,10.457-10.459v-61.029C751.765,265.409,747.078,260.72,741.308,260.72z"/>
	<path fill="#19212E" d="M844.271,260.72h-61.029c-5.779,0-10.459,4.688-10.459,10.459v61.029c0,5.78,4.68,10.459,10.459,10.459
		h61.029c5.771,0,10.459-4.679,10.459-10.459v-61.029C854.73,265.409,850.042,260.72,844.271,260.72z"/>
	<path fill="#FF4209" d="M220.174,376.288h-61.021c-5.778,0-10.467,4.688-10.467,10.469v61.02c0,5.78,4.688,10.47,10.467,10.47
		h61.021c5.78,0,10.468-4.689,10.468-10.47v-61.02C230.642,380.976,225.954,376.288,220.174,376.288z"/>
	<path fill="#FF4209" d="M117.209,376.288H56.19c-5.781,0-10.47,4.688-10.47,10.469v61.02c0,5.78,4.688,10.47,10.47,10.47h61.019
		c5.79,0,10.47-4.689,10.47-10.47v-61.02C127.679,380.976,122.999,376.288,117.209,376.288z"/>
	<path fill="#FF4209" d="M533.275,376.288h-61.029c-5.771,0-10.459,4.688-10.459,10.469v61.02c0,5.78,4.688,10.47,10.459,10.47
		h61.029c5.77,0,10.459-4.689,10.459-10.47v-61.02C543.734,380.976,539.044,376.288,533.275,376.288z"/>
	<path fill="#FF4209" d="M638.343,376.288h-61.027c-5.781,0-10.459,4.688-10.459,10.469v61.02c0,5.78,4.678,10.47,10.459,10.47
		h61.027c5.771,0,10.459-4.689,10.459-10.47v-61.02C648.802,380.976,644.113,376.288,638.343,376.288z"/>
	<path fill="#19212E" d="M741.308,376.288h-61.029c-5.781,0-10.457,4.688-10.457,10.469v61.02c0,5.78,4.676,10.47,10.457,10.47
		h61.029c5.771,0,10.457-4.689,10.457-10.47v-61.02C751.765,380.976,747.078,376.288,741.308,376.288z"/>
	<path fill="#19212E" d="M844.271,376.288h-61.029c-5.779,0-10.459,4.688-10.459,10.469v61.02c0,5.78,4.68,10.47,10.459,10.47
		h61.029c5.771,0,10.459-4.689,10.459-10.47v-61.02C854.73,380.976,850.042,376.288,844.271,376.288z"/>
	<path fill="#FF4209" d="M220.174,491.865h-61.021c-5.778,0-10.467,4.776-10.467,10.68v60.589c0,5.899,4.688,10.679,10.467,10.679
		h61.021c5.78,0,10.468-4.778,10.468-10.679v-60.589C230.642,496.642,225.954,491.865,220.174,491.865z"/>
	<path fill="#FF4209" d="M117.209,491.865H56.19c-5.781,0-10.47,4.776-10.47,10.68v60.589c0,5.899,4.688,10.679,10.47,10.679h61.019
		c5.79,0,10.47-4.778,10.47-10.679v-60.589C127.679,496.642,122.999,491.865,117.209,491.865z"/>
	<path fill="#FF4209" d="M533.275,491.865h-61.029c-5.771,0-10.459,4.776-10.459,10.68v60.589c0,5.899,4.688,10.679,10.459,10.679
		h61.029c5.77,0,10.459-4.778,10.459-10.679v-60.589C543.734,496.642,539.044,491.865,533.275,491.865z"/>
	<path fill="#FF4209" d="M638.343,491.865h-61.027c-5.781,0-10.459,4.776-10.459,10.68v60.589c0,5.899,4.678,10.679,10.459,10.679
		h61.027c5.771,0,10.459-4.778,10.459-10.679v-60.589C648.802,496.642,644.113,491.865,638.343,491.865z"/>
	<path fill="#19212E" d="M741.308,491.865h-61.029c-5.781,0-10.457,4.776-10.457,10.68v60.589c0,5.899,4.676,10.679,10.457,10.679
		h61.029c5.771,0,10.457-4.778,10.457-10.679v-60.589C751.765,496.642,747.078,491.865,741.308,491.865z"/>
	<path fill="#19212E" d="M844.271,491.865h-61.029c-5.779,0-10.459,4.776-10.459,10.68v60.589c0,5.899,4.68,10.679,10.459,10.679
		h61.029c5.771,0,10.459-4.778,10.459-10.679v-60.589C854.73,496.642,850.042,491.865,844.271,491.865z"/>
	<path fill="#FF4209" d="M427.786,607.431h-59.979c-5.779,0-11.091,5.089-11.091,10.869v59.968c0,5.78,5.312,11.12,11.091,11.12
		h59.979c5.771,0,10.88-5.34,10.88-11.12V618.3C438.666,612.52,433.557,607.431,427.786,607.431z"/>
	<path fill="#FF4209" d="M263.933,689.388h59.978c5.78,0,9.696-5.34,9.696-11.12V618.3c0-5.78-3.916-10.869-9.696-10.869h-59.978
		c-5.771,0-10.18,5.089-10.18,10.869v59.968C253.753,684.048,258.162,689.388,263.933,689.388z"/>
	<path fill="#FF4209" d="M220.034,607.431h-59.968c-5.79,0-11.38,5.089-11.38,10.869v59.968c0,5.78,5.59,11.12,11.38,11.12h59.968
		c5.78,0,10.607-5.34,10.607-11.12V618.3C230.642,612.52,225.814,607.431,220.034,607.431z"/>
	<path fill="#FF4209" d="M56.19,689.388h59.978c5.771,0,9.406-5.34,9.406-11.12V618.3c0-5.78-3.636-10.869-9.406-10.869H56.19
		c-5.781,0-10.47,5.089-10.47,10.869v59.968C45.721,684.048,50.409,689.388,56.19,689.388z"/>
	<path fill="#FF4209" d="M532.654,607.431h-59.98c-5.777,0-10.889,5.089-10.889,10.869v59.968c0,5.78,5.109,11.12,10.889,11.12
		h59.98c5.77,0,11.08-5.34,11.08-11.12V618.3C543.734,612.52,538.423,607.431,532.654,607.431z"/>
	<path fill="#FF4209" d="M636.519,607.431H576.55c-5.779,0-9.693,5.089-9.693,10.869v59.968c0,5.78,3.914,11.12,9.693,11.12h59.969
		c5.781,0,10.18-5.34,10.18-11.12V618.3C646.699,612.52,642.3,607.431,636.519,607.431z"/>
	<path fill="#19212E" d="M740.384,607.431h-59.967c-5.771,0-10.598,5.089-10.598,10.869v59.968c0,5.78,4.828,11.12,10.598,11.12
		h59.967c5.791,0,11.381-5.34,11.381-11.12V618.3C751.765,612.52,746.175,607.431,740.384,607.431z"/>
	<path fill="#19212E" d="M844.271,607.431h-59.979c-5.779,0-11.51,5.089-11.51,10.869v59.968c0,5.78,5.729,11.12,11.51,11.12h59.979
		c5.771,0,10.459-5.34,10.459-11.12V618.3C854.73,612.52,850.042,607.431,844.271,607.431z"/>
	<path fill="#FF4209" d="M428.206,723.008h-61.028c-5.771,0-10.46,4.778-10.46,10.682v60.588c0,5.899,4.689,10.679,10.46,10.679
		h61.028c5.781,0,10.46-4.778,10.46-10.679v-60.588C438.666,727.787,433.987,723.008,428.206,723.008z"/>
	<path fill="#FF4209" d="M325.241,723.008h-61.029c-5.77,0-10.459,4.778-10.459,10.682v60.588c0,5.899,4.689,10.679,10.459,10.679
		h61.029c5.781,0,10.459-4.778,10.459-10.679v-60.588C335.7,727.787,331.022,723.008,325.241,723.008z"/>
	<path fill="#FF4209" d="M220.174,723.008h-61.021c-5.778,0-10.467,4.778-10.467,10.682v60.588c0,5.899,4.688,10.679,10.467,10.679
		h61.021c5.78,0,10.468-4.778,10.468-10.679v-60.588C230.642,727.787,225.954,723.008,220.174,723.008z"/>
	<path fill="#FF4209" d="M117.209,723.008H56.19c-5.781,0-10.47,4.778-10.47,10.682v60.588c0,5.899,4.688,10.679,10.47,10.679
		h61.019c5.79,0,10.47-4.778,10.47-10.679v-60.588C127.679,727.787,122.999,723.008,117.209,723.008z"/>
	<path fill="#FF4209" d="M533.275,723.008h-61.029c-5.771,0-10.459,4.778-10.459,10.682v60.588c0,5.899,4.688,10.679,10.459,10.679
		h61.029c5.77,0,10.459-4.778,10.459-10.679v-60.588C543.734,727.787,539.044,723.008,533.275,723.008z"/>
	<path fill="#19212E" d="M741.308,723.008h-61.029c-5.781,0-10.457,4.778-10.457,10.682v60.588c0,5.899,4.676,10.679,10.457,10.679
		h61.029c5.771,0,10.457-4.778,10.457-10.679v-60.588C751.765,727.787,747.078,723.008,741.308,723.008z"/>
	<path fill="#19212E" d="M844.271,723.008h-61.029c-5.779,0-10.459,4.778-10.459,10.682v60.588c0,5.899,4.68,10.679,10.459,10.679
		h61.029c5.771,0,10.459-4.778,10.459-10.679v-60.588C854.73,727.787,850.042,723.008,844.271,723.008z"/>
	<path fill="#19212E" d="M81.604,852.981H56.341v64.775h25.264c20.357,0,34.424-14.164,34.424-32.378v-0.181
		C116.028,866.957,101.962,852.981,81.604,852.981z M101.121,885.56c0,11.479-7.874,19.345-19.517,19.345h-11.02v-39.061h11.02
		c11.643,0,19.517,8.065,19.517,19.535V885.56z"/>
	<rect x="184.219" y="852.981" fill="#19212E" width="14.245" height="64.775"/>
	<path fill="#19212E" d="M296.972,892.783h14.345v9.256c-3.605,2.586-8.233,3.878-13.423,3.878c-11.48,0-19.627-8.696-19.627-20.537
		v-0.181c0-11.021,8.246-20.187,18.604-20.187c7.485,0,11.943,2.404,16.952,6.571l8.966-10.818
		c-6.762-5.739-13.774-8.896-25.457-8.896c-19.604,0-33.951,15.088-33.951,33.511v0.181c0,19.163,13.887,33.319,34.043,33.319
		c11.852,0,21.008-4.628,27.678-10.269v-28.149h-28.128L296.972,892.783L296.972,892.783z"/>
	<rect x="391.149" y="852.981" fill="#19212E" width="14.245" height="64.775"/>
	<polygon fill="#19212E" points="475.46,866.125 495.166,866.125 495.166,917.757 509.412,917.757 509.412,866.125 529.126,866.125 
		529.126,852.981 475.46,852.981 	"/>
	<path fill="#19212E" d="M599.765,852.531l-27.75,65.227h14.516l5.93-14.524h27.391l5.93,14.524h14.877l-27.738-65.227H599.765z
		 M597.548,890.648l8.598-21.009l8.615,21.009H597.548z"/>
	<polygon fill="#19212E" points="701.335,852.981 687.091,852.981 687.091,917.757 733.632,917.757 733.632,904.804 
		701.335,904.804 	"/>
	<polygon fill="#19212E" points="800.234,858.08 803.197,869.732 814.478,866.957 814.478,917.757 828.542,917.757 828.542,852.531 
		818.847,852.531 	"/>
</g>
</svg>
